<svg xmlns="http://www.w3.org/2000/svg" xmlns:xlink="http://www.w3.org/1999/xlink" contentStyleType="text/css" height="284px" preserveAspectRatio="none" style="width:516px;height:284px;background:#FFFFFF;" version="1.1" viewBox="0 0 516 284" width="516px" zoomAndPan="magnify"><defs/><g><!--class system--><g id="elem_system"><rect codeLine="4" fill="#F1F1F1" height="96.8906" id="system" rx="2.5" ry="2.5" style="stroke:#181818;stroke-width:0.5;" width="156.6143" x="7" y="7"/><ellipse cx="55.7505" cy="23" fill="#ADD1B2" rx="11" ry="11" style="stroke:#181818;stroke-width:1.0;"/><path d="M58.7192,28.6406 Q58.1411,28.9375 57.5005,29.0781 Q56.8599,29.2344 56.1567,29.2344 Q53.6567,29.2344 52.3286,27.5938 Q51.0161,25.9375 51.0161,22.8125 Q51.0161,19.6875 52.3286,18.0313 Q53.6567,16.375 56.1567,16.375 Q56.8599,16.375 57.5005,16.5313 Q58.1567,16.6875 58.7192,16.9844 L58.7192,19.7031 Q58.0942,19.125 57.5005,18.8594 Q56.9067,18.5781 56.2817,18.5781 Q54.938,18.5781 54.2505,19.6563 Q53.563,20.7188 53.563,22.8125 Q53.563,24.9063 54.2505,25.9844 Q54.938,27.0469 56.2817,27.0469 Q56.9067,27.0469 57.5005,26.7813 Q58.0942,26.5 58.7192,25.9219 L58.7192,28.6406 Z " fill="#000000"/><text fill="#000000" font-family="sans-serif" font-size="14" lengthAdjust="spacing" textLength="50.6133" x="76.2505" y="27.8467">system</text><line style="stroke:#181818;stroke-width:0.5;" x1="8" x2="162.6143" y1="39" y2="39"/><line style="stroke:#181818;stroke-width:0.5;" x1="8" x2="162.6143" y1="47" y2="47"/><ellipse cx="18" cy="60.6484" fill="#84BE84" rx="3" ry="3" style="stroke:#038048;stroke-width:1.0;"/><text fill="#000000" font-family="sans-serif" font-size="14" lengthAdjust="spacing" textLength="39.5596" x="27" y="63.9951">logs()</text><ellipse cx="18" cy="76.9453" fill="#84BE84" rx="3" ry="3" style="stroke:#038048;stroke-width:1.0;"/><text fill="#000000" font-family="sans-serif" font-size="14" lengthAdjust="spacing" textLength="85.4697" x="27" y="80.292">storesdata()</text><ellipse cx="18" cy="93.2422" fill="#84BE84" rx="3" ry="3" style="stroke:#038048;stroke-width:1.0;"/><text fill="#000000" font-family="sans-serif" font-size="14" lengthAdjust="spacing" textLength="130.6143" x="27" y="96.5889">sendsnotification()</text></g><!--class password--><g id="elem_password"><rect codeLine="10" fill="#F1F1F1" height="96.8906" id="password" rx="2.5" ry="2.5" style="stroke:#181818;stroke-width:0.5;" width="156.9219" x="198.85" y="7"/><ellipse cx="240.0445" cy="23" fill="#ADD1B2" rx="11" ry="11" style="stroke:#181818;stroke-width:1.0;"/><path d="M243.0132,28.6406 Q242.4351,28.9375 241.7945,29.0781 Q241.1539,29.2344 240.4507,29.2344 Q237.9507,29.2344 236.6226,27.5938 Q235.3101,25.9375 235.3101,22.8125 Q235.3101,19.6875 236.6226,18.0313 Q237.9507,16.375 240.4507,16.375 Q241.1539,16.375 241.7945,16.5313 Q242.4507,16.6875 243.0132,16.9844 L243.0132,19.7031 Q242.3882,19.125 241.7945,18.8594 Q241.2007,18.5781 240.5757,18.5781 Q239.232,18.5781 238.5445,19.6563 Q237.857,20.7188 237.857,22.8125 Q237.857,24.9063 238.5445,25.9844 Q239.232,27.0469 240.5757,27.0469 Q241.2007,27.0469 241.7945,26.7813 Q242.3882,26.5 243.0132,25.9219 L243.0132,28.6406 Z " fill="#000000"/><text fill="#000000" font-family="sans-serif" font-size="14" lengthAdjust="spacing" textLength="66.7119" x="259.8655" y="27.8467">password</text><line style="stroke:#181818;stroke-width:0.5;" x1="199.85" x2="354.7719" y1="39" y2="39"/><rect fill="none" height="6" style="stroke:#C82930;stroke-width:1.0;" width="6" x="206.85" y="49.6484"/><text fill="#000000" font-family="sans-serif" font-size="14" lengthAdjust="spacing" textLength="117.6602" x="218.85" y="55.9951">password: String</text><rect fill="none" height="6" style="stroke:#C82930;stroke-width:1.0;" width="6" x="206.85" y="65.9453"/><text fill="#000000" font-family="sans-serif" font-size="14" lengthAdjust="spacing" textLength="89.5576" x="218.85" y="72.292">email: String</text><line style="stroke:#181818;stroke-width:0.5;" x1="199.85" x2="354.7719" y1="79.5938" y2="79.5938"/><ellipse cx="209.85" cy="93.2422" fill="#84BE84" rx="3" ry="3" style="stroke:#038048;stroke-width:1.0;"/><text fill="#000000" font-family="sans-serif" font-size="14" lengthAdjust="spacing" textLength="130.9219" x="218.85" y="96.5889">recoverpassword()</text></g><!--class admin--><g id="elem_admin"><rect codeLine="16" fill="#F1F1F1" height="80.5938" id="admin" rx="2.5" ry="2.5" style="stroke:#181818;stroke-width:0.5;" width="118.8594" x="390.88" y="15.15"/><ellipse cx="425.2269" cy="31.15" fill="#ADD1B2" rx="11" ry="11" style="stroke:#181818;stroke-width:1.0;"/><path d="M428.1957,36.7906 Q427.6175,37.0875 426.9769,37.2281 Q426.3363,37.3844 425.6332,37.3844 Q423.1332,37.3844 421.805,35.7437 Q420.4925,34.0875 420.4925,30.9625 Q420.4925,27.8375 421.805,26.1812 Q423.1332,24.525 425.6332,24.525 Q426.3363,24.525 426.9769,24.6812 Q427.6332,24.8375 428.1957,25.1344 L428.1957,27.8531 Q427.5707,27.275 426.9769,27.0094 Q426.3832,26.7281 425.7582,26.7281 Q424.4144,26.7281 423.7269,27.8062 Q423.0394,28.8687 423.0394,30.9625 Q423.0394,33.0562 423.7269,34.1344 Q424.4144,35.1969 425.7582,35.1969 Q426.3832,35.1969 426.9769,34.9312 Q427.5707,34.65 428.1957,34.0719 L428.1957,36.7906 Z " fill="#000000"/><text fill="#000000" font-family="sans-serif" font-size="14" lengthAdjust="spacing" textLength="43.8662" x="443.5262" y="35.9967">admin</text><line style="stroke:#181818;stroke-width:0.5;" x1="391.88" x2="508.7394" y1="47.15" y2="47.15"/><line style="stroke:#181818;stroke-width:0.5;" x1="391.88" x2="508.7394" y1="55.15" y2="55.15"/><ellipse cx="401.88" cy="68.7984" fill="#84BE84" rx="3" ry="3" style="stroke:#038048;stroke-width:1.0;"/><text fill="#000000" font-family="sans-serif" font-size="14" lengthAdjust="spacing" textLength="92.8594" x="410.88" y="72.1451">deleteusers()</text><ellipse cx="401.88" cy="85.0953" fill="#84BE84" rx="3" ry="3" style="stroke:#038048;stroke-width:1.0;"/><text fill="#000000" font-family="sans-serif" font-size="14" lengthAdjust="spacing" textLength="75.1064" x="410.88" y="88.442">addusers()</text></g><!--class data--><g id="elem_data"><rect codeLine="21" fill="#F1F1F1" height="64.2969" id="data" rx="2.5" ry="2.5" style="stroke:#181818;stroke-width:0.5;" width="111.4697" x="29.57" y="188.34"/><ellipse cx="66.141" cy="204.34" fill="#ADD1B2" rx="11" ry="11" style="stroke:#181818;stroke-width:1.0;"/><path d="M69.1097,209.9806 Q68.5316,210.2775 67.891,210.4181 Q67.2504,210.5744 66.5472,210.5744 Q64.0472,210.5744 62.7191,208.9337 Q61.4066,207.2775 61.4066,204.1525 Q61.4066,201.0275 62.7191,199.3712 Q64.0472,197.715 66.5472,197.715 Q67.2504,197.715 67.891,197.8712 Q68.5472,198.0275 69.1097,198.3244 L69.1097,201.0431 Q68.4847,200.465 67.891,200.1994 Q67.2972,199.9181 66.6722,199.9181 Q65.3285,199.9181 64.641,200.9962 Q63.9535,202.0587 63.9535,204.1525 Q63.9535,206.2462 64.641,207.3244 Q65.3285,208.3869 66.6722,208.3869 Q67.2972,208.3869 67.891,208.1212 Q68.4847,207.84 69.1097,207.2619 L69.1097,209.9806 Z " fill="#000000"/><text fill="#000000" font-family="sans-serif" font-size="14" lengthAdjust="spacing" textLength="31.5342" x="84.9346" y="209.1867">data</text><line style="stroke:#181818;stroke-width:0.5;" x1="30.57" x2="140.0397" y1="220.34" y2="220.34"/><line style="stroke:#181818;stroke-width:0.5;" x1="30.57" x2="140.0397" y1="228.34" y2="228.34"/><ellipse cx="40.57" cy="241.9884" fill="#84BE84" rx="3" ry="3" style="stroke:#038048;stroke-width:1.0;"/><text fill="#000000" font-family="sans-serif" font-size="14" lengthAdjust="spacing" textLength="85.4697" x="49.57" y="245.3351">storesdata()</text></g><!--class user--><g id="elem_user"><rect codeLine="25" fill="#F1F1F1" height="113.1875" id="user" rx="2.5" ry="2.5" style="stroke:#181818;stroke-width:0.5;" width="156.9219" x="175.85" y="163.89"/><ellipse cx="234.7929" cy="179.89" fill="#ADD1B2" rx="11" ry="11" style="stroke:#181818;stroke-width:1.0;"/><path d="M237.7616,185.5306 Q237.1835,185.8275 236.5429,185.9681 Q235.9022,186.1244 235.1991,186.1244 Q232.6991,186.1244 231.371,184.4838 Q230.0585,182.8275 230.0585,179.7025 Q230.0585,176.5775 231.371,174.9213 Q232.6991,173.265 235.1991,173.265 Q235.9022,173.265 236.5429,173.4213 Q237.1991,173.5775 237.7616,173.8744 L237.7616,176.5931 Q237.1366,176.015 236.5429,175.7494 Q235.9491,175.4681 235.3241,175.4681 Q233.9804,175.4681 233.2929,176.5463 Q232.6054,177.6088 232.6054,179.7025 Q232.6054,181.7963 233.2929,182.8744 Q233.9804,183.9369 235.3241,183.9369 Q235.9491,183.9369 236.5429,183.6713 Q237.1366,183.39 237.7616,182.8119 L237.7616,185.5306 Z " fill="#000000"/><text fill="#000000" font-family="sans-serif" font-size="14" lengthAdjust="spacing" textLength="30.5361" x="255.2929" y="184.7367">user</text><line style="stroke:#181818;stroke-width:0.5;" x1="176.85" x2="331.7719" y1="195.89" y2="195.89"/><rect fill="none" height="6" style="stroke:#C82930;stroke-width:1.0;" width="6" x="183.85" y="206.5384"/><text fill="#000000" font-family="sans-serif" font-size="14" lengthAdjust="spacing" textLength="117.6602" x="195.85" y="212.8851">password: String</text><rect fill="none" height="6" style="stroke:#C82930;stroke-width:1.0;" width="6" x="183.85" y="222.8353"/><text fill="#000000" font-family="sans-serif" font-size="14" lengthAdjust="spacing" textLength="89.5576" x="195.85" y="229.182">email: String</text><line style="stroke:#181818;stroke-width:0.5;" x1="176.85" x2="331.7719" y1="236.4838" y2="236.4838"/><ellipse cx="186.85" cy="250.1322" fill="#84BE84" rx="3" ry="3" style="stroke:#038048;stroke-width:1.0;"/><text fill="#000000" font-family="sans-serif" font-size="14" lengthAdjust="spacing" textLength="130.9219" x="195.85" y="253.4789">recoverpassword()</text><ellipse cx="186.85" cy="266.4291" fill="#84BE84" rx="3" ry="3" style="stroke:#038048;stroke-width:1.0;"/><text fill="#000000" font-family="sans-serif" font-size="14" lengthAdjust="spacing" textLength="129.1582" x="195.85" y="269.7757">changepassword()</text></g><!--SRC=[fP0n3i8m34NtdC9RGHKNw8Ou0YUmObCifGcA0mWXxauJDRI54G-H_UF_zUJcu52LjJFDRbd6sFm1-j340pmDG0ikzBhPbbPJYAo42Ql0djI792Unc2JuKNz1ZRcCppr4Aa6xpzZ1CKNnVH5vG74BfON8DjmurkrL8j8WVk8YTfpugXmh7XBLSRPasicnmfytikTVnApQC_gUlxYRlMgmKexpS-yt]--></g></svg>