<svg xmlns="http://www.w3.org/2000/svg" xmlns:xlink="http://www.w3.org/1999/xlink" contentStyleType="text/css" height="201px" preserveAspectRatio="none" style="width:1199px;height:201px;background:#FFFFFF;" version="1.1" viewBox="0 0 1199 201" width="1199px" zoomAndPan="magnify"><defs/><g><g id="cluster_##7"><rect fill="none" height="69.79" rx="2.5" ry="2.5" style="stroke:#181818;stroke-width:1.0;" width="1186" x="7" y="125.8"/></g><g id="elem_change password"><ellipse cx="1095.003" cy="160.6866" fill="#F1F1F1" rx="81.733" ry="18.7466" style="stroke:#181818;stroke-width:0.5;"/><text fill="#000000" font-family="sans-serif" font-size="14" lengthAdjust="spacing" textLength="122.6846" x="1032.6285" y="163.8745">change password</text></g><g id="elem_add users"><ellipse cx="254.9955" cy="160.6902" fill="#F1F1F1" rx="61.2855" ry="14.7802" style="stroke:#181818;stroke-width:0.5;"/><text fill="#000000" font-family="sans-serif" font-size="14" lengthAdjust="spacing" textLength="68.6328" x="217.6791" y="164.4378">add users</text></g><g id="elem_logs"><ellipse cx="747.0038" cy="160.6936" fill="#F1F1F1" rx="31.7338" ry="14.5236" style="stroke:#181818;stroke-width:0.5;"/><text fill="#000000" font-family="sans-serif" font-size="14" lengthAdjust="spacing" textLength="28.6357" x="732.6859" y="163.5403">logs</text></g><g id="elem_delete users"><ellipse cx="91.0009" cy="160.6922" fill="#F1F1F1" rx="67.6609" ry="15.9322" style="stroke:#181818;stroke-width:0.5;"/><text fill="#000000" font-family="sans-serif" font-size="14" lengthAdjust="spacing" textLength="86.3857" x="44.808" y="164.4397">delete users</text></g><g id="elem_stores data"><ellipse cx="415.9953" cy="160.6851" fill="#F1F1F1" rx="65.0753" ry="15.4151" style="stroke:#181818;stroke-width:0.5;"/><text fill="#000000" font-family="sans-serif" font-size="14" lengthAdjust="spacing" textLength="78.9961" x="373.4972" y="164.4326">stores data</text></g><g id="elem_recover password"><ellipse cx="895.9978" cy="160.6856" fill="#F1F1F1" rx="82.4778" ry="18.8956" style="stroke:#181818;stroke-width:0.5;"/><text fill="#000000" font-family="sans-serif" font-size="14" lengthAdjust="spacing" textLength="124.4482" x="833.002" y="163.7907">recover password</text></g><g id="elem_sends notification"><ellipse cx="597.9975" cy="160.6895" fill="#F1F1F1" rx="82.3475" ry="18.8695" style="stroke:#181818;stroke-width:0.5;"/><text fill="#000000" font-family="sans-serif" font-size="14" lengthAdjust="spacing" textLength="124.1406" x="535.1104" y="163.8091">sends notification</text></g><!--entity admin--><g id="elem_admin"><ellipse cx="173.0031" cy="14" fill="#F1F1F1" rx="8" ry="8" style="stroke:#181818;stroke-width:0.5;"/><path d="M173.0031,22 L173.0031,49 M160.0031,30 L186.0031,30 M173.0031,49 L160.0031,64 M173.0031,49 L186.0031,64 " fill="none" style="stroke:#181818;stroke-width:0.5;"/><text fill="#000000" font-family="sans-serif" font-size="14" lengthAdjust="spacing" textLength="43.8662" x="151.07" y="78.4951">admin</text></g><!--entity data--><g id="elem_data"><ellipse cx="415.9971" cy="14" fill="#F1F1F1" rx="8" ry="8" style="stroke:#181818;stroke-width:0.5;"/><path d="M415.9971,22 L415.9971,49 M402.9971,30 L428.9971,30 M415.9971,49 L402.9971,64 M415.9971,49 L428.9971,64 " fill="none" style="stroke:#181818;stroke-width:0.5;"/><text fill="#000000" font-family="sans-serif" font-size="14" lengthAdjust="spacing" textLength="31.5342" x="400.23" y="78.4951">data</text></g><!--entity system--><g id="elem_system"><ellipse cx="597.9966" cy="14" fill="#F1F1F1" rx="8" ry="8" style="stroke:#181818;stroke-width:0.5;"/><path d="M597.9966,22 L597.9966,49 M584.9966,30 L610.9966,30 M597.9966,49 L584.9966,64 M597.9966,49 L610.9966,64 " fill="none" style="stroke:#181818;stroke-width:0.5;"/><text fill="#000000" font-family="sans-serif" font-size="14" lengthAdjust="spacing" textLength="50.6133" x="572.69" y="78.4951">system</text></g><!--entity password--><g id="elem_password"><ellipse cx="895.996" cy="14" fill="#F1F1F1" rx="8" ry="8" style="stroke:#181818;stroke-width:0.5;"/><path d="M895.996,22 L895.996,49 M882.996,30 L908.996,30 M895.996,49 L882.996,64 M895.996,49 L908.996,64 " fill="none" style="stroke:#181818;stroke-width:0.5;"/><text fill="#000000" font-family="sans-serif" font-size="14" lengthAdjust="spacing" textLength="66.7119" x="862.64" y="78.4951">password</text></g><!--entity user--><g id="elem_user"><ellipse cx="1036.9981" cy="14" fill="#F1F1F1" rx="8" ry="8" style="stroke:#181818;stroke-width:0.5;"/><path d="M1036.9981,22 L1036.9981,49 M1023.9981,30 L1049.9981,30 M1036.9981,49 L1023.9981,64 M1036.9981,49 L1049.9981,64 " fill="none" style="stroke:#181818;stroke-width:0.5;"/><text fill="#000000" font-family="sans-serif" font-size="14" lengthAdjust="spacing" textLength="30.5361" x="1021.73" y="78.4951">user</text></g><!--link user to recover password--><g id="link_user_recover password"><path d="M1021.37,57.4 C996.13,77.99 950.9892,114.8273 922.3292,138.2073 " fill="none" id="user-to-recover password" style="stroke:#181818;stroke-width:1.0;"/><polygon fill="#181818" points="917.68,142,927.1823,139.4104,921.5544,138.8394,922.1254,133.2114,917.68,142" style="stroke:#181818;stroke-width:1.0;"/></g><!--link user to change password--><g id="link_user_change password"><path d="M1052.7,75.78 C1063.36,96.94 1074.3985,118.8326 1083.2785,136.4426 " fill="none" id="user-to-change password" style="stroke:#181818;stroke-width:1.0;"/><polygon fill="#181818" points="1085.98,141.8,1085.4993,131.9629,1083.7287,137.3355,1078.3561,135.5649,1085.98,141.8" style="stroke:#181818;stroke-width:1.0;"/></g><!--link data to stores data--><g id="link_data_stores data"><path d="M416,82 C416,103.39 416,123.04 416,138.85 " fill="none" id="data-to-stores data" style="stroke:#181818;stroke-width:1.0;"/><polygon fill="#181818" points="416,144.85,420,135.85,416,139.85,412,135.85,416,144.85" style="stroke:#181818;stroke-width:1.0;"/></g><!--link password to recover password--><g id="link_password_recover password"><path d="M896,82 C896,101.95 896,119.6 896,135.52 " fill="none" id="password-to-recover password" style="stroke:#181818;stroke-width:1.0;"/><polygon fill="#181818" points="896,141.52,900,132.52,896,136.52,892,132.52,896,141.52" style="stroke:#181818;stroke-width:1.0;"/></g><!--link admin to delete users--><g id="link_admin_delete users"><path d="M150.59,76.09 C134.66,98.44 117.451,122.573 105.121,139.883 " fill="none" id="admin-to-delete users" style="stroke:#181818;stroke-width:1.0;"/><polygon fill="#181818" points="101.64,144.77,110.1195,139.7602,104.5408,140.6975,103.6035,135.1189,101.64,144.77" style="stroke:#181818;stroke-width:1.0;"/></g><!--link admin to add users--><g id="link_admin_add users"><path d="M195.41,76.09 C211.62,98.84 229.288,123.6138 241.538,140.8038 " fill="none" id="admin-to-add users" style="stroke:#181818;stroke-width:1.0;"/><polygon fill="#181818" points="245.02,145.69,243.0544,136.0393,242.1183,141.6181,236.5394,140.682,245.02,145.69" style="stroke:#181818;stroke-width:1.0;"/></g><!--link system to sends notification--><g id="link_system_sends notification"><path d="M598,82 C598,101.95 598,119.6 598,135.52 " fill="none" id="system-to-sends notification" style="stroke:#181818;stroke-width:1.0;"/><polygon fill="#181818" points="598,141.52,602,132.52,598,136.52,594,132.52,598,141.52" style="stroke:#181818;stroke-width:1.0;"/></g><!--link system to stores data--><g id="link_system_stores data"><path d="M572.31,60.89 C536.35,83.62 476.7015,121.3237 442.9315,142.6737 " fill="none" id="system-to-stores data" style="stroke:#181818;stroke-width:1.0;"/><polygon fill="#181818" points="437.86,145.88,447.6047,144.4516,442.0862,143.2081,443.3297,137.6896,437.86,145.88" style="stroke:#181818;stroke-width:1.0;"/></g><!--link system to logs--><g id="link_system_logs"><path d="M623.46,62.47 C643.91,76.97 673.21,98.18 698,117.8 C710.11,127.38 718.8894,134.8534 728.5794,143.3534 " fill="none" id="system-to-logs" style="stroke:#181818;stroke-width:1.0;"/><polygon fill="#181818" points="733.09,147.31,728.9619,138.368,729.3312,144.0128,723.6864,144.3821,733.09,147.31" style="stroke:#181818;stroke-width:1.0;"/></g><!--SRC=[TP3H3i8W34NV-nLax_i5_wMXTP9iO2XgZF7VHK1Nt7oZFIttzg9D8HganNd0yYPCs9vobyHBAyueSWkHMdaHZX3P9lJJpEO1kM5Hs0psb5lydH_CYf2eB8fkpc7gQkAP4s_d9Cko57-wdJs4AyTTFM5FOdn8xkWi9XTyfT6Cus5dLR7VA-2jMv4s0f-1Vp-MQ2li3jDWZGLgv4rdwxxdseS69L5ulW00]--></g></svg>